@startuml
'https://plantuml.com/state-diagram

state "AI Frameworks" as AIFrameworks {
  MXNet : [[https://mxnet.apache.org/]]
  Caffe : [[http://caffe.berkeleyvision.org/]]
  Keras : [[https://keras.io/]]
  Torch : [[http://torch.ch/]]
  Chainer : [[https://chainer.org/]]
  Theano : [[https://github.com/Theano/Theano]]
  CNTK : [[https://docs.microsoft.com/en-us/cognitive-toolkit/]]
  TensorFlow : [[https://www.tensorflow.org]]
  PyTorch : [[https://pytorch.org/]]
  PyTorchLightning : [[https://www.pytorchlightning.ai/]]
  DeepLearning4J : [[https://deeplearning4j.konduit.ai/]]

  [*] --> FrameworkSelection #tomato
  DeepLearning4J <- FrameworkSelection
  FrameworkSelection -> MXNet
  FrameworkSelection -> Caffe
  FrameworkSelection -> Keras
  FrameworkSelection --> Torch
  FrameworkSelection --> Chainer
  FrameworkSelection --> CNTK
  FrameworkSelection --> TensorFlow #tomato
  PyTorch #tomato <- FrameworkSelection
  PyTorchLightning <- FrameworkSelection
  PyTorchLightning -[#white]-> PyTorch
  DeepLearning4J -[#white]-> PyTorchLightning
  Caffe --[#white]> MXNet
  MXNet -[#white]-> Keras
  Chainer -[#white]> Torch
  Chainer -[#white]-> CNTK
  DeepLearning4J -[#white]-> Caffe
  Theano <-- FrameworkSelection
  Theano -[#white]-> Caffe
}

'center footer Generated by Plant2ML www.plant2ml.com
@enduml