@startuml
'https://plantuml.com/state-diagram

state "AutoML Frameworks" as AutoMLFrameworks {
  GoogleCloudAutoML : [[https://cloud.google.com/automl]]
  H2O.ai : [[https://www.h2o.ai/]]
  DataRobot : [[https://www.datarobot.com/]]
  TPOT : [[https://github.com/EpistasisLab/tpot]]
  AutoKeras : [[https://autokeras.com/]]
  Ludwig : [[https://ludwig.ai/]]
  AutoGluon : [[https://autogluon.mxnet.io/]]
  MLJAR : [[https://mljar.com/]]
  IBMAutoAI : [[https://www.ibm.com/cloud/watson-studio/autoai]]
  AzureAutomatedMachineLearning : [[https://azure.microsoft.com/en-us/services/machine-learning/automatedml/]]
  Pycaret : [[https://pycaret.org/]]
  ScikitLearn : [[https://scikit-learn.org/stable/auto_examples/index.html#automated-machine-learning]]

  'semantic links (edges)
  [*] --> FrameworkSelection #tomato
  GoogleCloudAutoML <- FrameworkSelection
  H2O.ai <- FrameworkSelection
  DataRobot <- FrameworkSelection
  FrameworkSelection --> TPOT
  AutoKeras #tomato <- FrameworkSelection
  FrameworkSelection --> Ludwig
  AutoGluon #tomato <-- FrameworkSelection
  FrameworkSelection --> MLJAR
  FrameworkSelection --> IBMAutoAI
  FrameworkSelection -> AzureAutomatedMachineLearning
  FrameworkSelection --> Pycaret
  FrameworkSelection --> ScikitLearn

  'invisible layout enforcing links
  Ludwig -[#white]-> TPOT
  DataRobot -[#white]-> H2O.ai
  H2O.ai -[#white]> GoogleCloudAutoML
  IBMAutoAI -[#white]-> ScikitLearn
  AutoGluon -[#white]-> Pycaret
  AutoGluon -[#white]-> AzureAutomatedMachineLearning
  DataRobot -[#white]> AutoGluon
  AutoKeras -[#white]> DataRobot
}

'center footer Generated by Plant2ML www.plant2ml.com

@enduml