@startuml
'https://plantuml.com/state-diagram

'scale 350 width

'skinparam state {
'  FontSize 12
'  FontColor blue
'}

[*] --> AutoGluon

state "**AutoGluon**" as AutoGluon #tomato

state "Forecasting Models" as ForecastingModels #lightgreen

state "Simple Forecasting Models" as SimpleForecastingModels {
  state ARIMA {

  }

  state ETS {

  }

  state Theta {

  }

  state SeasonalNaive {

  }

  state KalmanFiltering #lightgreen {

  }

  ARIMA -[#white]> ETS
  ETS -[#white]> Theta
  ARIMA -[#white]-> SeasonalNaive
  SeasonalNaive <[#white]- KalmanFiltering
}

state "Powerfull Deep Learning Models" as PowerfullDeepLearningModels {
  state DeepAR {

  }

  state SimpleFeedForward {

  }

  state "Temporal Fusion Transformer" as TemporalFusionTransformer {

  }
}

state "Tree-Based Models" as TreeBasedModels {
  state XGBoost {

  }

  state CatBoost {

  }

  state LightGBM {

  }
}

state Ensemble {

}

state "**Time Series**" as TimeSeries #gold {

}

state "Tabular Data" as TabularData {

}

state Multimodal {

}

state "**Applications**" as Applications #gold

AutoGluon --> ForecastingModels
SimpleForecastingModels <- ForecastingModels
'ForecastingModels --> SimpleForecastingModels
ForecastingModels --> PowerfullDeepLearningModels
ForecastingModels --> TreeBasedModels
ForecastingModels -> Ensemble

AutoGluon -> Applications
Applications -> TabularData
Applications --> Multimodal
Applications --> TimeSeries

'center footer Generated by Plant2ML www.plant2ml.com

@enduml