@startuml
'https://plantuml.com/state-diagram

'scale 350 width

'skinparam state {
'  FontSize 12
'  FontColor blue
'}

skinparam state {
  backgroundColor Gold
}

state "Time Series" as TimeSeries {
  state "..." as more {

  }

  state "**EvaluatingPerformance**" as EvaluatingPerformance

  EvaluatingPerformance : entry / predictor\n\
entry / test_data\n\
exit / predictor.leaderboard\n\
====\n\
[[https://colab.research.google.com/github/autogluon/autogluon/blob/master/docs/tutorials/timeseries/forecasting-quick-start.ipynb#scrollTo=2f4f8e9c&line=3&uniqifier=1 Colab]]\n\
====\n\
~# The test score is computed using the last\n\
~# prediction_length=48 timesteps of each time series in test_data\n\
predictor.leaderboard(test_data, silent=True)

  [*] -> more
  more -> EvaluatingPerformance
  EvaluatingPerformance -> [*]
}

'center footer Generated by Plant2ML www.plant2ml.com

@enduml