@startuml
'https://plantuml.com/state-diagram

'scale 350 width

'skinparam state {
'  FontSize 12
'  FontColor blue
'}

skinparam state {
  backgroundColor Gold
}

state "Time Series" as TimeSeries {

  state "..." as more

  state "**Training time series models**\nwith TimeSeriesPredictor.fit" as TrainingTimeSeries {

  }

  TrainingTimeSeries : entry / train_data\n\
exit / predictor\n\
====\n\
[[https://colab.research.google.com/github/autogluon/autogluon/blob/master/docs/tutorials/timeseries/forecasting-quick-start.ipynb#scrollTo=f7ef668c&line=1&uniqifier=1 Colab]]\n\
====\n\
predictor = TimeSeriesPredictor(\n\
  prediction_length=48,\n\
  path="autogluon-m4-hourly",\n\
  target="target",\n\
  eval_metric="sMAPE",\n\
)\n\
\n\
predictor.fit(\n\
  train_data,\n\
  presets="medium_quality",\n\
  time_limit=600,\n\
)\n

  state "..." as more1

  [*] -> more
  more -> TrainingTimeSeries
  TrainingTimeSeries -> more1
  more1 -> [*]
}

'center footer Generated by Plant2ML www.plant2ml.com

@enduml