@startuml
'https://plantuml.com/state-diagram

'scale 350 width

'skinparam state {
'  FontSize 12
'  FontColor blue
'}

skinparam state {
  backgroundColor Gold
}

state "Time Series" as TimeSeries {
  state "**Loading Time Series**\ndata as a TimeSeriesDateFrame" as LoadingTimeSeries {

  }

  LoadingTimeSeries : entry / "https://autogluon.s3.amazonaws.com/datasets/timeseries/m4_hourly_subset/train.csv"\n\
exit / train_data\n\
====\n\
[[https://colab.research.google.com/github/autogluon/autogluon/blob/master/docs/tutorials/timeseries/forecasting-quick-start.ipynb#scrollTo=aa00faab-252f-44c9-b8f7-57131aa8251c&line=1&uniqifier=1 Colab]]\n\
====\n\
!pip install autogluon.timeseries\n\
----\n\
import pandas as pd\n\
from autogluon.timeseries import TimeSeriesDataFrame, TimeSeriesPredictor\n\
----\n\
df = pd.read_csv("https://autogluon.s3.amazonaws.com/datasets/timeseries/m4_hourly_subset/train.csv")\n\
df.head()\n\
----\n\
train_data = TimeSeriesDataFrame.from_data_frame(\n\
    df,\n\
    id_column="item_id",\n\
    timestamp_column="timestamp"\n\
)\n\
train_data.head()

  state "..." as more {

  }

  [*] -> LoadingTimeSeries
  LoadingTimeSeries -> more
  more -> [*]
}

'center footer Generated by Plant2ML www.plant2ml.com

@enduml