@startuml

skinparam state {
  backgroundColor Gold
}

state "**Time Series**" as TimeSeries {
  state LoadingTimeSeries
  state TrainingTimeSeries
  state GeneratingForecasts
  state EvaluatingPerformance

  [*] -> LoadingTimeSeries
  LoadingTimeSeries -> TrainingTimeSeries
  TrainingTimeSeries -> GeneratingForecasts
  GeneratingForecasts -> EvaluatingPerformance
  EvaluatingPerformance -> [*]
}

'center footer Generated by Plant2ML www.plant2ml.com

@enduml